<svg width="101" height="122" viewBox="0 0 101 122" fill="none" xmlns="http://www.w3.org/2000/svg">
<path d="M30.8987 121.149C28.3428 121.149 26.2201 120.12 24.444 118.011C22.6678 115.902 21.8014 113.329 21.8014 110.345C21.8014 107.362 22.6678 104.789 24.444 102.68C26.2201 100.571 28.3861 99.5416 30.8987 99.5416C33.4113 99.5416 35.5774 100.571 37.3535 102.68C39.1297 104.789 39.9961 107.362 39.9961 110.345C39.9961 113.329 39.1297 115.902 37.3535 118.011C35.5774 120.12 33.4113 121.149 30.8987 121.149ZM81.6272 121.149C79.0713 121.149 76.9486 120.12 75.1724 118.011C73.3963 115.902 72.5299 113.329 72.5299 110.345C72.5299 107.362 73.3963 104.789 75.1724 102.68C76.9486 100.571 79.1146 99.5416 81.6272 99.5416C84.1398 99.5416 86.3058 100.571 88.082 102.68C89.8581 104.789 90.7245 107.362 90.7245 110.345C90.7245 113.329 89.8581 115.902 88.082 118.011C86.3058 120.12 84.1398 121.149 81.6272 121.149ZM19.2888 9.61269C20.0252 11.4648 21.5848 12.648 23.3176 12.648H95.1865C97.136 12.648 98.6089 13.677 99.6052 15.7863C100.602 17.8956 100.602 20.0049 99.6052 22.1143L82.4936 58.7443C81.4539 60.8537 80.0676 62.5514 78.3781 63.7347C77.0352 64.6607 75.519 65.0723 73.9594 65.0723H38.2199C36.5737 65.0723 35.0575 66.1527 34.3211 67.8504L32.0251 72.9436C30.4222 76.442 32.5882 80.7121 35.9239 80.7121H86.9556C89.0783 80.7121 90.7678 82.7185 90.7678 85.2394C90.7678 87.7603 89.0783 89.7667 86.9556 89.7667H29.5991C26.0468 89.7667 23.4909 88.3777 21.9314 85.5481C20.3718 82.7185 20.3718 79.5803 21.9747 76.0819L29.0359 60.6479C29.7291 59.1559 29.7724 57.4067 29.1659 55.8633L12.0543 12.8024C11.3178 10.9503 9.75826 9.76703 8.02544 9.76703H4.77639C2.65368 9.76703 0.964172 7.76061 0.964172 5.23972C0.964172 2.71883 2.65368 0.712402 4.77639 0.712402H15.8231L19.3321 9.56124L19.2888 9.61269Z" fill="#F39B9B"/>
</svg>
