<svg width="224" height="90" viewBox="0 0 224 90" fill="none" xmlns="http://www.w3.org/2000/svg">
<g clip-path="url(#clip0_311_137)">
<path d="M110.982 33.0052L110.982 31.4373C110.982 28.0168 108.214 25.2439 104.798 25.2439L6.18465 25.2439C2.76904 25.2439 0.000129821 28.0168 0.00012997 31.4373L0.000130039 33.0052C0.000130188 36.4257 2.76904 39.1986 6.18465 39.1986L104.798 39.1986C108.214 39.1986 110.982 36.4257 110.982 33.0052Z" fill="#F39B9B"/>
<path d="M110.982 58.5627L110.982 56.9948C110.982 53.5743 108.214 50.8014 104.798 50.8014L6.18465 50.8014C2.76904 50.8014 0.000129821 53.5743 0.00012997 56.9948L0.000130039 58.5627C0.000130188 61.9832 2.76904 64.7561 6.18465 64.7561L104.798 64.7561C108.214 64.7561 110.982 61.9832 110.982 58.5627Z" fill="#F39B9B"/>
<path d="M167.687 68.1793C172.958 59.4511 182.144 53.8587 192.347 53.8587L224 53.8587L223.87 36.1148L196.966 36.1148C184.205 36.1148 172.358 29.4772 165.73 18.58C159.102 7.68279 153.569 -0.0262747 138.669 -0.0262741L7.3849 -0.0262683C2.68779 -0.0262681 0.547992 2.7699 0.547993 5.85352C0.547993 8.93715 2.66169 11.864 7.41099 11.7333L122.673 11.7333C139.974 11.7333 164.947 17.796 164.947 44.9737C164.947 72.1514 139.974 78.2141 122.673 78.2141L7.15005 78.2142C2.76608 78.1358 -4.1726e-07 80.4615 -2.64193e-07 83.9633C-9.51355e-08 87.8309 2.40075 90.1567 6.96738 89.9999L138.669 89.9999C154.926 89.9999 167.034 69.2246 167.661 68.1793L167.687 68.1793Z" fill="#F39B9B"/>
</g>
<defs>
<clipPath id="clip0_311_137">
<rect width="90" height="224" fill="white" transform="translate(0 90) rotate(-90)"/>
</clipPath>
</defs>
</svg>
