<svg width="87" height="122" viewBox="0 0 87 122" fill="none" xmlns="http://www.w3.org/2000/svg">
<path d="M18.6159 116.642V72.5795C18.6159 68.6797 16.3001 65.4383 13.0195 63.6657C10.4143 62.2476 8.05028 60.3231 5.92752 57.8414C2.45391 53.6884 0.668884 48.6744 0.668884 42.8501V5.21992C0.668884 2.73825 2.59866 0.712402 4.96265 0.712402C7.32663 0.712402 9.25641 2.73825 9.25641 5.21992V38.3426C9.25641 40.8243 11.1862 42.8501 13.5502 42.8501H14.2738C16.6378 42.8501 18.5676 40.8243 18.5676 38.3426V5.21992C18.5676 2.73825 20.4974 0.712402 22.8613 0.712402C25.2253 0.712402 27.1551 2.73825 27.1551 5.21992V38.3426C27.1551 40.8243 29.0849 42.8501 31.4489 42.8501H32.1726C34.5366 42.8501 36.4663 40.8243 36.4663 38.3426V5.21992C36.4663 2.73825 38.3961 0.712402 40.7601 0.712402C43.1241 0.712402 45.0539 2.73825 45.0539 5.21992V42.8501C45.0539 48.6744 43.3171 53.6884 39.7952 57.8414C37.7207 60.3231 35.3567 62.2983 32.7033 63.6657C29.4226 65.4383 27.1069 68.6797 27.1069 72.5795V116.642C27.1069 119.123 25.1771 121.149 22.8131 121.149C20.4491 121.149 18.5194 119.123 18.5194 116.642H18.6159ZM78.1496 116.642V79.0115C78.1496 75.6689 75.5927 72.9846 72.4085 72.9846H65.4613C63.3385 72.9846 61.65 71.212 61.65 68.9836V27.0485C61.65 19.097 63.9657 12.7662 68.5489 7.90417C72.2155 4.05506 76.7988 1.77597 82.2987 0.965634C84.6144 0.61111 86.7372 2.48502 86.7372 4.91604V116.642C86.7372 119.123 84.8074 121.149 82.4434 121.149C80.0794 121.149 78.1496 119.123 78.1496 116.642Z" fill="#F39B9B"/>
</svg>
