<svg width="111" height="119" viewBox="0 0 111 119" fill="none" xmlns="http://www.w3.org/2000/svg">
<path d="M94.1583 39.3374C96.549 39.3374 98.5094 38.4688 100.087 36.7826C101.665 35.0454 102.43 32.9505 102.43 30.4979C102.43 28.0453 101.665 25.8482 100.087 24.1621C98.5094 22.4759 96.549 21.6584 94.1583 21.6584C91.7676 21.6584 89.9027 22.4759 88.277 24.1621C86.6513 25.8482 85.8863 27.9431 85.8863 30.4979C85.8863 33.0527 86.6991 35.0454 88.277 36.7826C89.9027 38.5199 91.8632 39.3374 94.1583 39.3374ZM94.1583 48.1769C89.4725 48.1769 85.5516 46.4907 82.348 43.0673C79.1923 39.695 77.5666 35.4541 77.5666 30.4468C77.5666 25.4395 79.1444 21.3519 82.348 17.9285C85.5516 14.5051 89.4725 12.7678 94.1583 12.7678C98.8442 12.7678 102.669 14.5051 105.873 17.9285C109.076 21.3519 110.702 25.5417 110.702 30.4468C110.702 35.352 109.076 39.644 105.873 43.0673C102.669 46.4396 98.7485 48.1769 94.1583 48.1769ZM55.5239 33.4103C58.5362 33.4103 61.166 32.2862 63.3177 30.038C65.4694 27.7899 66.5692 24.9796 66.5692 21.6584C66.5692 18.3372 65.4694 15.6292 63.3177 13.3299C61.166 11.0306 58.5362 9.85542 55.5239 9.85542C52.5115 9.85542 49.7861 11.0306 47.6823 13.3299C45.5784 15.6292 44.5265 18.4394 44.5265 21.6584C44.5265 24.8774 45.5784 27.7899 47.6823 30.038C49.7861 32.2862 52.4159 33.4103 55.5239 33.4103ZM55.5239 42.2498C50.1208 42.2498 45.5306 40.2571 41.801 36.2717C38.0715 32.2862 36.2068 27.3811 36.2068 21.6073C36.2068 15.8336 38.0715 11.0306 41.801 6.99408C45.5306 2.95756 50.1208 0.964844 55.5239 0.964844C60.9269 0.964844 65.4216 2.95756 69.199 6.99408C72.9763 11.0306 74.8411 15.8847 74.8411 21.6073C74.8411 27.33 72.9763 32.2862 69.199 36.2717C65.4216 40.2571 60.8791 42.2498 55.5239 42.2498ZM22.3882 68.0529C22.3882 62.8412 24.2051 58.2426 27.8869 54.2061C31.5686 50.1696 35.7765 48.1769 40.5579 48.1769C43.3312 48.1769 46.0087 48.8411 48.6864 50.2207C51.364 51.6002 53.6113 53.4397 55.4283 55.8411C57.2452 53.4908 59.4925 51.6002 62.1223 50.2207C64.7521 48.8411 67.4776 48.1769 70.3465 48.1769C75.0323 48.1769 79.2401 50.1696 82.9697 54.2061C86.6992 58.2426 88.5639 62.8412 88.5639 68.0529C88.5639 73.2646 86.7948 78.3742 83.2565 83.4837C79.7182 88.5421 72.4503 96.4108 61.5486 107.141L55.4761 113.017L49.4036 107.141C38.2627 96.3086 30.995 88.4399 27.5523 83.3815C24.1096 78.3742 22.3882 73.2646 22.3882 68.0529ZM16.8895 39.2863C19.2803 39.2863 21.2406 38.4177 22.8185 36.7315C24.3964 34.9943 25.1616 32.8994 25.1616 30.4468C25.1616 27.9942 24.3964 25.7971 22.8185 24.111C21.2406 22.4249 19.2803 21.6073 16.8895 21.6073C14.4988 21.6073 12.634 22.4249 11.0083 24.111C9.38256 25.7971 8.61752 27.892 8.61752 30.4468C8.61752 33.0016 9.43038 34.9943 11.0083 36.7315C12.634 38.4688 14.5944 39.2863 16.8895 39.2863ZM55.9543 118.893V110.053H102.43V62.9434H82.8262V54.1039H102.43C104.725 54.1039 106.686 54.9725 108.311 56.6587C109.937 58.3448 110.702 60.4908 110.702 62.9434V118.944H55.9065L55.9543 118.893ZM8.61752 110.053H55.9543V118.893H0.345652V62.9434C0.345652 60.4908 1.1585 58.3959 2.73639 56.6587C4.31428 54.9214 6.32241 54.1039 8.61752 54.1039H28.0782V62.9434H8.61752V110.104V110.053ZM16.8895 48.1258C12.2037 48.1258 8.28287 46.4396 5.07927 43.0162C1.92349 39.644 0.297791 35.403 0.297791 30.3957C0.297791 25.3884 1.87568 21.3008 5.07927 17.8774C8.23505 14.454 12.2037 12.7168 16.8895 12.7168C21.5754 12.7168 25.4006 14.454 28.6042 17.8774C31.8078 21.3008 33.4334 25.4906 33.4334 30.3957C33.4334 35.3009 31.8078 39.5929 28.6042 43.0162C25.4006 46.3885 21.4798 48.1258 16.8895 48.1258Z" fill="#F39B9B"/>
</svg>
