<svg width="23" height="23" viewBox="0 0 23 23" fill="none" xmlns="http://www.w3.org/2000/svg">
<path fill-rule="evenodd" clip-rule="evenodd" d="M6.48449 0.0661995C7.66138 0.0122569 8.03651 0 11.0333 0C14.0306 0 14.4051 0.0128688 15.5814 0.0661995C16.7564 0.11953 17.5588 0.306484 18.2606 0.579246C18.9968 0.856392 19.6636 1.29063 20.2147 1.85175C20.7759 2.40284 21.2102 3.06971 21.4873 3.80586C21.76 4.5077 21.9464 5.31007 22.0003 6.48449C22.0543 7.66138 22.0665 8.03651 22.0665 11.0333C22.0665 14.03 22.0537 14.4051 22.0003 15.5821C21.947 16.7564 21.76 17.5588 21.4873 18.2606C21.2053 18.9858 20.8277 19.6018 20.2147 20.2147C19.6637 20.7759 18.9968 21.2102 18.2606 21.4873C17.5588 21.76 16.7564 21.9464 15.5821 22.0003C14.4051 22.0543 14.03 22.0665 11.0333 22.0665C8.03651 22.0665 7.66138 22.0537 6.48449 22.0003C5.31007 21.947 4.5077 21.76 3.80586 21.4873C3.08073 21.2053 2.46471 20.8277 1.85175 20.2147C1.29053 19.6637 0.856261 18.9968 0.579246 18.2606C0.306484 17.5588 0.120142 16.7564 0.0661995 15.5821C0.0122569 14.4051 0 14.0306 0 11.0333C0 8.03589 0.0128688 7.66138 0.0661995 6.48511C0.11953 5.31007 0.306484 4.5077 0.579246 3.80586C0.856392 3.06976 1.29063 2.40292 1.85175 1.85175C2.40283 1.29053 3.0697 0.856261 3.80586 0.579246C4.5077 0.306484 5.31007 0.120142 6.48449 0.0661995ZM15.4919 2.05219C14.3285 1.99947 13.9791 1.98782 11.0333 1.98782C8.08738 1.98782 7.738 1.99947 6.5746 2.05219C5.49886 2.10122 4.91471 2.28082 4.52608 2.43222C4.0112 2.63204 3.64342 2.87109 3.25726 3.25726C2.87172 3.64342 2.63204 4.0112 2.43222 4.52608C2.28082 4.91471 2.10122 5.49886 2.05219 6.5746C1.99947 7.738 1.98782 8.08738 1.98782 11.0333C1.98782 13.9791 1.99947 14.3285 2.05219 15.4919C2.10122 16.5676 2.28082 17.1518 2.43222 17.5405C2.60897 18.0197 2.8909 18.4532 3.25726 18.8093C3.61323 19.1756 4.04681 19.4576 4.52608 19.6343C4.91471 19.7857 5.49886 19.9653 6.5746 20.0143C7.738 20.0671 8.08677 20.0787 11.0333 20.0787C13.9797 20.0787 14.3285 20.0671 15.4919 20.0143C16.5676 19.9653 17.1518 19.7857 17.5405 19.6343C18.0553 19.4345 18.4231 19.1955 18.8093 18.8093C19.1756 18.4533 19.4576 18.0197 19.6343 17.5405C19.7857 17.1518 19.9653 16.5676 20.0143 15.4919C20.0671 14.3285 20.0787 13.9791 20.0787 11.0333C20.0787 8.08738 20.0671 7.738 20.0143 6.5746C19.9653 5.49886 19.7857 4.91471 19.6343 4.52608C19.4345 4.0112 19.1955 3.64342 18.8093 3.25726C18.4231 2.87172 18.0553 2.63204 17.5405 2.43222C17.1518 2.28082 16.5676 2.10122 15.4919 2.05219ZM9.62451 14.4344C10.0712 14.6195 10.5498 14.7147 11.0333 14.7147C12.0097 14.7147 12.946 14.3268 13.6364 13.6364C14.3269 12.946 14.7148 12.0096 14.7148 11.0333C14.7148 10.0569 14.3269 9.12049 13.6364 8.43009C12.946 7.73969 12.0097 7.35182 11.0333 7.35182C10.5498 7.35182 10.0712 7.44705 9.62451 7.63206C9.17777 7.81706 8.77197 8.08823 8.43012 8.43009C8.08827 8.77194 7.81709 9.17777 7.63209 9.62441C7.44708 10.0711 7.35186 10.5498 7.35186 11.0333C7.35186 11.5167 7.44708 11.9955 7.63209 12.4421C7.81709 12.8888 8.08827 13.2946 8.43012 13.6364C8.77197 13.9782 9.17777 14.2495 9.62451 14.4344ZM7.02322 7.02318C8.08676 5.95965 9.52923 5.36215 11.0333 5.36215C12.5374 5.36215 13.9798 5.95965 15.0433 7.02318C16.1069 8.08672 16.7044 9.52923 16.7044 11.0333C16.7044 12.5373 16.1069 13.9797 15.0433 15.0433C13.9798 16.1069 12.5374 16.7044 11.0333 16.7044C9.52923 16.7044 8.08676 16.1069 7.02322 15.0433C5.95969 13.9797 5.36219 12.5373 5.36219 11.0333C5.36219 9.52923 5.95969 8.08672 7.02322 7.02318ZM17.9618 6.20709C18.2132 5.95568 18.3544 5.61472 18.3544 5.25918C18.3544 4.90364 18.2132 4.56267 17.9618 4.31128C17.7104 4.05988 17.3695 3.91864 17.0139 3.91864C16.6584 3.91864 16.3174 4.05988 16.066 4.31128C15.8146 4.56267 15.6733 4.90364 15.6733 5.25918C15.6733 5.61472 15.8146 5.95568 16.066 6.20709C16.3174 6.45849 16.6584 6.59973 17.0139 6.59973C17.3695 6.59973 17.7104 6.45849 17.9618 6.20709Z" fill="#005B26"/>
</svg>
