<svg width="14" height="14" viewBox="0 0 14 14" fill="none" xmlns="http://www.w3.org/2000/svg">
<path d="M7.06515 13.0718C6.22687 13.0718 5.43791 12.9075 4.69826 12.5952C3.95861 12.2829 3.31758 11.8391 2.77516 11.2967C2.23275 10.7542 1.78896 10.1132 1.47666 9.37356C1.16437 8.63391 1 7.84495 1 7.00668C1 6.16841 1.16437 5.37944 1.47666 4.63979C1.78896 3.90014 2.23275 3.25911 2.77516 2.7167C3.31758 2.17428 3.95861 1.73049 4.69826 1.41819C5.43791 1.1059 6.22687 0.941528 7.06515 0.941528C7.90342 0.941528 8.69238 1.1059 9.43203 1.41819C10.1717 1.73049 10.8127 2.17428 11.3551 2.7167C11.8975 3.25911 12.3413 3.90014 12.6536 4.63979C12.9659 5.37944 13.1303 6.16841 13.1303 7.00668V7.81207C13.1303 8.37092 12.9331 8.86402 12.5386 9.24207C12.1441 9.63655 11.651 9.83379 11.0757 9.83379C10.7141 9.83379 10.3689 9.7516 10.0402 9.5708C9.71146 9.39 9.4649 9.14345 9.30054 8.81471C9.03755 9.15988 8.70882 9.40644 8.31434 9.58724C7.91985 9.75161 7.50894 9.83379 7.06515 9.83379C6.27618 9.83379 5.60228 9.55436 5.05987 9.01195C4.50102 8.46954 4.23803 7.79564 4.23803 7.00668C4.23803 6.21772 4.51746 5.54381 5.05987 4.98496C5.61871 4.42611 6.27618 4.14669 7.06515 4.14669C7.85411 4.14669 8.52801 4.42611 9.07042 4.98496C9.62927 5.54381 9.89226 6.21772 9.89226 7.00668V7.81207C9.89226 8.12437 10.0073 8.38736 10.2374 8.60103C10.4675 8.81471 10.747 8.91334 11.0593 8.91334C11.3716 8.91334 11.651 8.81471 11.8647 8.60103C12.0783 8.38736 12.2098 8.12437 12.2098 7.81207V7.00668C12.2098 5.57668 11.7167 4.34393 10.7141 3.34129C9.71146 2.33865 8.49514 1.84555 7.04871 1.84555C5.60228 1.84555 4.38596 2.33865 3.38332 3.34129C2.38068 4.34393 1.88758 5.56025 1.88758 7.00668C1.88758 8.45311 2.38068 9.66942 3.38332 10.6721C4.38596 11.6747 5.60228 12.1678 7.04871 12.1678H10.3032V13.0718H7.04871H7.06515ZM7.06515 8.91334C7.60756 8.91334 8.05135 8.73253 8.42939 8.35449C8.80744 7.97644 8.98824 7.53265 8.98824 6.99024C8.98824 6.44783 8.80744 5.9876 8.42939 5.60955C8.05135 5.23151 7.60756 5.05071 7.06515 5.05071C6.52273 5.05071 6.07894 5.23151 5.7009 5.60955C5.32285 5.9876 5.14205 6.44783 5.14205 6.99024C5.14205 7.53265 5.32285 7.97644 5.7009 8.35449C6.07894 8.7161 6.52273 8.91334 7.06515 8.91334Z" fill="#005B26" stroke="#005B26" stroke-width="0.5" stroke-miterlimit="10"/>
</svg>
