<svg width="13" height="13" viewBox="0 0 13 13" fill="none" xmlns="http://www.w3.org/2000/svg">
<path d="M11.9031 12.6584C10.5895 12.6584 9.27584 12.329 7.97864 11.6868C6.68143 11.0447 5.51559 10.1884 4.48111 9.15099C3.44663 8.11359 2.60919 6.94446 1.95238 5.64359C1.31199 4.34273 1 3.04186 1 1.72453C1 1.52693 1.06568 1.3458 1.21346 1.21407C1.36125 1.08233 1.52545 1 1.72249 1H3.9885C4.13628 1 4.26764 1.0494 4.38259 1.1482C4.49753 1.247 4.56321 1.3952 4.59605 1.55987L5.0394 3.60173C5.05582 3.74993 5.05582 3.89813 5.0394 4.0134C5.00656 4.14513 4.9573 4.24393 4.8752 4.32626L3.266 5.95646C3.87356 6.96092 4.54679 7.83366 5.30212 8.57465C6.05746 9.31565 6.8949 9.95785 7.84727 10.4683L9.37436 8.88752C9.48931 8.77225 9.60425 8.68992 9.75203 8.64052C9.89981 8.59112 10.0312 8.59112 10.179 8.62406L12.1001 9.05219C12.2643 9.08512 12.3957 9.16745 12.5106 9.29919C12.6256 9.43092 12.6748 9.57912 12.6748 9.76025V11.9503C12.6748 12.1479 12.6092 12.329 12.4614 12.4608C12.3136 12.609 12.1494 12.6748 11.9524 12.6748L11.9031 12.6584ZM2.75697 5.06726L4.0706 3.73346L3.69293 1.95507H1.9688C1.9688 2.3832 2.03448 2.84426 2.16584 3.33826C2.29721 3.83226 2.49425 4.40859 2.75697 5.06726V5.06726ZM8.71755 10.9459C9.1609 11.1435 9.63709 11.3246 10.1625 11.4563C10.6716 11.5881 11.1806 11.6539 11.6732 11.6868V9.95785L10.0148 9.61205L8.73397 10.9623L8.71755 10.9459Z" fill="#005B26" stroke="#005B26" stroke-width="0.5" stroke-miterlimit="10"/>
</svg>
