<svg width="115" height="125" viewBox="0 0 115 125" fill="none" xmlns="http://www.w3.org/2000/svg">
<path d="M64.3499 13.9364C63.9149 13.8165 63.4701 13.5455 63.142 13.1939L64.3499 13.9364ZM64.3499 13.9364C64.8161 14.0608 65.2968 14.1309 65.7733 14.1309H69.8583C72.73 14.1309 75.0641 11.8576 75.0641 9.06124C75.0641 6.26983 72.735 4.00141 69.8737 3.99158L64.3499 13.9364ZM109.553 64.5989C113.774 53.622 113.286 41.3909 112.197 30.1368C112.152 29.4946 112.105 28.8393 112.029 28.2735L112.026 28.2361C111.683 24.0921 111.268 19.0761 109.044 14.548C107.24 10.8342 104.256 8.19934 100.474 6.70509C100.481 6.59874 100.487 6.49015 100.493 6.37968L100.493 6.36765L100.494 6.35561C100.548 4.62489 99.3328 3.12826 97.6206 2.81004L97.6176 2.80948L97.3465 4.28479L97.6175 2.80946L97.6174 2.80944L97.617 2.80938L97.6159 2.80918L97.6122 2.80849L97.5984 2.80598L97.5476 2.79677C97.504 2.7889 97.4416 2.77773 97.3653 2.76427C97.213 2.73743 97.0036 2.70124 96.7766 2.66413C96.3611 2.59619 95.7668 2.5046 95.4044 2.48767V2.48761L95.3915 2.48712C94.1789 2.44091 91.4563 2.48009 91.1408 2.48607C87.4888 2.5 84.4673 5.40674 84.4673 9.05569C84.4673 12.7179 87.511 15.6253 91.1731 15.6253H95.2581C95.9028 15.6253 96.5228 15.532 97.3482 15.2998L97.3594 15.2966C98.1259 15.0745 98.7135 14.5683 99.1086 14.057C99.16 13.9903 99.2098 13.9216 99.2577 13.8511C100.729 14.7301 101.864 15.9606 102.652 17.5789L102.655 17.5851C104.283 20.8875 104.635 24.9607 104.973 28.991L104.977 29.0368L104.983 29.0823C105.044 29.4999 105.072 29.9236 105.109 30.501C105.112 30.552 105.116 30.6042 105.119 30.6578L105.121 30.6819L105.123 30.7059C106.177 41.537 106.577 52.6049 102.918 62.1192L102.916 62.1241C100.9 67.4185 97.5581 71.0068 93.3622 72.6821C92.5401 73.0002 91.6256 73.2367 90.6254 73.4163C90.6561 72.1322 90.4519 70.9076 89.8077 69.9359C89.134 68.9119 88.1984 68.2177 87.0417 67.878C85.9279 67.5509 84.6938 67.5761 83.4073 67.8108L82.9618 67.8865C80.182 68.178 78.7393 67.8283 78.2043 67.637L78.2 67.6354C77.2091 67.2845 75.2694 66.9019 73.544 67.9055C71.2931 69.2035 70.7089 71.4485 70.7046 73.501C69.5851 73.3261 68.5805 73.0831 67.6887 72.7354C63.4541 71.0142 60.0957 67.405 58.0621 62.122C56.0914 56.96 55.1148 50.8363 55.1312 43.4687L55.8678 31.1989C55.93 30.6939 55.9698 29.9281 55.9942 29.3496L56.028 28.7597C56.4112 24.6802 56.7921 20.8126 58.3335 17.5819C59.1277 15.9691 60.2693 14.7416 61.7559 13.8679C61.8997 14.0641 62.0574 14.2387 62.2169 14.3902C62.6976 14.8469 63.3088 15.2054 63.9513 15.3825L63.9513 15.3826L63.9634 15.3858C64.5401 15.5396 65.1512 15.6309 65.7733 15.6309H69.8583C73.5207 15.6309 76.5641 12.7232 76.5641 9.06124C76.5641 5.40923 73.535 2.51186 69.8934 2.49165C69.5921 2.48593 66.8624 2.44628 65.6353 2.49265L65.6332 2.49273C65.2656 2.50712 64.6651 2.60044 64.2526 2.66845C64.0254 2.70591 63.8157 2.74257 63.6631 2.7698C63.5867 2.78344 63.5241 2.79479 63.4804 2.80279L63.4294 2.81215L63.4156 2.81471L63.4118 2.81542L63.4107 2.81563L63.4103 2.81569L63.4102 2.81571L63.685 4.29033L63.4101 2.81573L63.4097 2.8158C61.7185 3.13148 60.4881 4.60711 60.5375 6.33545L60.5377 6.34518L60.5384 6.36865L60.5402 6.43018L60.5456 6.60051L60.5497 6.73261C56.7653 8.21465 53.7683 10.8393 51.942 14.561L51.9386 14.568L51.9352 14.575C49.8227 18.9959 49.3806 23.7571 48.9622 28.2636L48.9543 28.3479L48.9515 28.3783L48.9499 28.4087L48.9191 29.0021L48.9189 29.0049C48.9162 29.0597 48.9135 29.1144 48.9108 29.169C48.8867 29.6566 48.8632 30.1329 48.8163 30.5093L48.8104 30.5569L48.8075 30.6048L48.05 43.2121L48.0474 43.2547L48.0473 43.2973C48.0212 51.5459 49.1137 58.5273 51.4324 64.5947L51.4338 64.5983C54.1238 71.5833 58.7953 76.6859 65.0262 79.2124L65.0339 79.2155L65.0417 79.2186C67.2769 80.0961 69.7669 80.5359 72.4252 80.7195C72.7649 81.302 73.1409 81.7569 73.4499 82.081L73.5536 82.2612C73.5844 82.3149 73.615 82.3682 73.6424 82.4161C73.7506 82.8613 73.96 83.5798 74.4576 84.299C74.9592 85.024 75.7016 85.6818 76.7735 86.1519V87.7423C76.7735 103.536 63.5653 116.455 47.2493 116.455C30.9235 116.455 17.7185 103.611 17.7185 87.9367V69.5554C22.9516 68.0608 26.82 63.3358 26.82 57.6984C26.82 50.8509 21.1148 45.3513 14.1816 45.3513C7.24836 45.3513 1.54321 50.8509 1.54321 57.6984C1.54321 63.3249 5.40547 68.0488 10.6243 69.5484V87.9367C10.6243 107.564 27.0974 123.444 47.2442 123.444C67.3993 123.444 83.8642 107.466 83.8642 87.7423V86.1242C84.7589 85.716 85.4144 85.145 85.8889 84.4954C86.3635 83.8455 86.6195 83.1599 86.7774 82.6593C86.8059 82.6364 86.8374 82.6112 86.8729 82.5828L86.8844 82.5737L86.8956 82.5644L86.9281 82.5374C87.3289 82.2046 88.0165 81.6338 88.6044 80.715C91.2471 80.5172 93.7276 80.0593 95.9906 79.1795L96.0012 79.1753C102.222 76.7027 106.884 71.5993 109.553 64.5989ZM91.1577 3.98603C88.2913 3.99104 85.9673 6.26428 85.9673 9.05569C85.9673 11.8522 88.3017 14.1253 91.1731 14.1253H95.2581C95.7345 14.1253 96.2153 14.0603 96.942 13.8558C97.3077 13.7499 97.6376 13.4953 97.8943 13.1745L91.1577 3.98603ZM77.6992 69.0494C76.8697 68.7556 75.4574 68.5261 74.2954 69.2038C72.646 70.1538 72.1701 71.8661 72.2043 73.6909L77.6992 69.0494ZM89.0417 79.8829C89.042 79.882 89.042 79.8821 89.0416 79.883L89.0417 79.8829Z" fill="#F39B9B" stroke="#F39B9B" stroke-width="3"/>
</svg>
