<svg width="115" height="109" viewBox="0 0 115 109" fill="none" xmlns="http://www.w3.org/2000/svg">
<path d="M110.197 23.926C105.895 15.0992 101.549 10.1341 83.0795 9.45512C76.5608 9.2005 68.2604 12.2559 62.5239 15.2689C61.2202 15.9479 58.7865 0.58588 58.1347 0.713189C56.1356 1.05268 54.18 1.47705 52.0071 1.90141C52.5286 2.96233 57.5697 14.5899 56.9178 15.0143C56.3963 15.3538 42.2726 8.64883 33.3638 9.79462C24.455 10.9404 10.4616 13.529 5.63774 23.2894C0.292436 34.0683 -0.576814 46.5023 1.4657 57.5782C3.07364 66.2777 16.9801 94.0312 22.9338 99.0387C33.103 107.611 41.4903 110.539 54.6146 107.95C57.5263 107.399 60.3075 107.059 63.1323 107.95C64.7402 108.46 83.2098 109.224 90.163 103.325C100.593 94.4556 111.848 67.8903 113.109 62.2038C115.238 52.4434 115.282 34.2805 110.197 23.8836V23.926ZM58.6561 102.264C35.3193 102.264 16.6759 83.6342 16.6759 61.2702C16.6759 38.9061 31.3212 20.2764 58.6561 20.2764C85.9911 20.2764 100.636 38.4817 100.636 61.2702C100.636 86.9019 81.0803 102.264 58.6561 102.264Z" fill="#F39B9B"/>
<path d="M57.3204 37.3125V71.7286" stroke="#F39B9B" stroke-width="8" stroke-miterlimit="10"/>
<path d="M84.221 70.0244H54.8001" stroke="#F39B9B" stroke-width="8" stroke-miterlimit="10"/>
</svg>
