<svg width="416" height="98" viewBox="0 0 416 98" fill="none" xmlns="http://www.w3.org/2000/svg">
<g clip-path="url(#clip0_177_394)">
<path d="M72.2885 35.3649V42.4796H66.7205V21.007H75.5941C77.4554 21.007 79.397 21.3603 81.0337 22.9342C82.7026 24.5402 83.0235 26.355 83.0235 28.1538C83.0235 29.8562 82.7988 31.8637 81.13 33.5019C79.4612 35.14 77.4554 35.3649 75.7866 35.3649H72.2725H72.2885ZM72.2885 30.8519H74.1499C74.7276 30.8519 75.8187 30.7877 76.4926 30.1774C77.1666 29.5992 77.1987 28.732 77.1987 28.218C77.1987 27.6399 77.1345 26.869 76.5568 26.2908C75.915 25.6163 74.888 25.5199 74.182 25.5199H72.2885V30.868V30.8519Z" fill="#005B26"/>
<path d="M100.787 40.5844C98.8933 42.4474 96.6629 42.9613 94.3522 42.9613C92.2662 42.9613 89.9395 42.5438 87.9497 40.5844C86.3772 39.0426 85.7354 37.2117 85.7354 35.2684C85.7354 32.6988 86.8907 31.0125 87.9497 29.9846C89.1372 28.8282 91.2232 27.6077 94.3522 27.6077C97.4812 27.6077 99.5993 28.8604 100.787 29.9846C101.846 31.0125 103.001 32.6827 103.001 35.2684C103.001 37.1957 102.359 39.0426 100.787 40.5844ZM92.0736 32.9236C91.4318 33.5339 91.0788 34.4333 91.0788 35.2684C91.0788 36.1036 91.496 36.9708 92.0736 37.549C92.6834 38.1593 93.5178 38.5126 94.3843 38.5126C95.2508 38.5126 96.0531 38.1593 96.6629 37.549C97.3047 36.9387 97.6577 36.1036 97.6577 35.2684C97.6577 34.4975 97.3047 33.566 96.6629 32.9236C96.0852 32.3776 95.1866 31.9921 94.3843 31.9921C93.582 31.9921 92.6513 32.3776 92.0736 32.9236Z" fill="#005B26"/>
<path d="M107.574 28.0895H112.725V30.4343C113.239 29.4707 113.977 28.8282 114.747 28.4428C115.517 28.0252 116.448 27.8646 117.411 27.8646C117.539 27.8646 117.764 27.8967 118.438 27.9289V32.7951C118.181 32.6667 117.475 32.2812 116.223 32.2812C115.549 32.2812 114.619 32.3776 113.881 33.0521C112.789 34.0478 112.725 35.5575 112.725 36.3284V42.4795H107.574V28.0895Z" fill="#005B26"/>
<path d="M133.473 28.0895H138.624V42.4795H133.473V40.9056C132.286 42.5438 130.424 42.9613 128.996 42.9613C127.456 42.9613 125.546 42.5116 123.813 40.6808C122.433 39.2032 121.759 37.549 121.759 35.3969C121.759 32.6988 122.818 30.7876 123.974 29.6313C125.193 28.4107 127.087 27.6077 129.156 27.6077C131.467 27.6077 132.863 28.7961 133.473 29.4707V28.0895ZM128.065 32.9236C127.359 33.5982 127.038 34.5297 127.038 35.2684C127.038 36.1036 127.391 37.0029 128.033 37.6132C128.579 38.1272 129.477 38.5769 130.344 38.5769C131.21 38.5769 132.013 38.2235 132.655 37.5811C133.104 37.1314 133.617 36.4248 133.617 35.2684C133.617 34.5939 133.425 33.6945 132.622 32.9236C132.141 32.4739 131.403 31.9921 130.312 31.9921C129.67 31.9921 128.803 32.217 128.065 32.9236Z" fill="#005B26"/>
<path d="M160.046 42.4796H154.895V40.9056C153.451 42.7686 151.557 42.9614 150.546 42.9614C148.492 42.9614 146.84 42.2868 145.492 40.9699C144.048 39.5566 143.181 37.5169 143.181 35.2364C143.181 32.7952 144.208 30.7877 145.524 29.535C146.936 28.1859 148.829 27.6077 150.61 27.6077C152.568 27.6077 153.948 28.475 154.895 29.4707V18.9994H160.046V42.4796ZM153.964 37.7096C154.638 37.0994 155.055 36.1357 155.055 35.2685C155.055 34.4655 154.606 33.5018 154.092 32.9558C153.515 32.3455 152.713 31.9922 151.75 31.9922C150.659 31.9922 149.92 32.474 149.471 32.9237C148.894 33.5018 148.476 34.4012 148.476 35.3648C148.476 36.1036 148.797 36.9388 149.471 37.6133C150.177 38.3199 151.012 38.5769 151.75 38.5769C152.584 38.5769 153.419 38.1915 153.964 37.7096Z" fill="#005B26"/>
<path d="M165.197 28.0895H170.347V29.8883C171.759 28.0253 173.669 27.7683 174.921 27.7683C176.397 27.7683 177.969 28.1216 179.173 29.3101C180.392 30.5307 180.521 31.7513 180.521 33.3412V42.4796H175.37V35.2042C175.37 34.3691 175.402 33.1164 174.728 32.4097C174.247 31.8958 173.605 31.7994 173.091 31.7994C172.289 31.7994 171.615 32.0885 171.198 32.474C170.684 32.9558 170.363 33.8873 170.363 34.7545V42.4796H165.213V28.0895H165.197Z" fill="#005B26"/>
<path d="M188.191 19.1921C189.795 19.1921 191.079 20.477 191.079 22.083C191.079 23.689 189.795 24.9738 188.191 24.9738C186.586 24.9738 185.302 23.689 185.302 22.083C185.302 20.477 186.586 19.1921 188.191 19.1921ZM190.758 28.0735V42.4635H185.607V28.0735H190.758Z" fill="#005B26"/>
<path d="M207.013 28.0895H212.164V42.4795H207.013V40.9056C205.826 42.5438 203.964 42.9613 202.536 42.9613C200.996 42.9613 199.086 42.5116 197.353 40.6808C195.973 39.2032 195.299 37.549 195.299 35.3969C195.299 32.6988 196.358 30.7876 197.514 29.6313C198.733 28.4107 200.627 27.6077 202.697 27.6077C205.007 27.6077 206.403 28.7961 207.013 29.4707V28.0895ZM201.606 32.9236C200.899 33.5982 200.579 34.5297 200.579 35.2684C200.579 36.1036 200.932 37.0029 201.573 37.6132C202.119 38.1272 203.018 38.5769 203.884 38.5769C204.751 38.5769 205.553 38.2235 206.195 37.5811C206.644 37.1314 207.158 36.4248 207.158 35.2684C207.158 34.5939 206.965 33.6945 206.163 32.9236C205.681 32.4739 204.943 31.9921 203.852 31.9921C203.21 31.9921 202.344 32.217 201.606 32.9236Z" fill="#005B26"/>
<path d="M226.895 42.4796V21.007H234.196C236.346 21.007 239.956 21.296 242.716 23.9621C245.219 26.3711 245.701 29.4707 245.701 31.7834C245.701 34.61 244.995 37.1315 242.909 39.2193C241.208 40.9217 238.336 42.4635 234.677 42.4635H226.895V42.4796ZM232.463 37.7418H233.586C234.934 37.7418 236.843 37.6133 238.287 36.2C238.993 35.5255 239.924 34.1764 239.924 31.7834C239.924 29.7919 239.314 28.0735 238.255 27.0778C236.94 25.8572 235.207 25.7287 233.811 25.7287H232.463V37.7418Z" fill="#005B26"/>
<path d="M252.954 19.1921C254.558 19.1921 255.842 20.477 255.842 22.083C255.842 23.689 254.558 24.9738 252.954 24.9738C251.349 24.9738 250.065 23.689 250.065 22.083C250.065 20.477 251.349 19.1921 252.954 19.1921ZM255.521 28.0735V42.4635H250.37V28.0735H255.521Z" fill="#005B26"/>
<path d="M275.9 36.2321H265.181C265.181 37.003 265.47 38.0308 266.079 38.6411C266.4 38.9623 267.042 39.3478 268.198 39.3478C268.326 39.3478 269.225 39.3157 269.866 38.9623C270.187 38.7696 270.54 38.4484 270.765 37.9987H275.691C275.467 38.8017 275.017 39.926 273.958 40.9538C272.899 41.9817 271.23 42.9453 268.101 42.9453C266.208 42.9453 263.913 42.5277 262.148 40.7611C261.217 39.8296 260.03 38.063 260.03 35.3167C260.03 32.9076 260.929 30.9643 262.18 29.7437C263.368 28.5874 265.229 27.6559 268.069 27.6559C269.738 27.6559 271.904 28.0092 273.605 29.6152C275.627 31.5425 275.884 34.0639 275.884 35.67V36.216L275.9 36.2321ZM271.166 33.277C271.038 32.7309 270.717 32.1207 270.332 31.7352C269.658 31.0607 268.727 30.9643 268.214 30.9643C267.347 30.9643 266.673 31.1892 266.128 31.7352C265.775 32.1207 265.454 32.6346 265.357 33.277H271.182H271.166Z" fill="#005B26"/>
<path d="M286.153 32.2973V42.4796H281.003V32.2973H279.366V28.0735H281.003V23.3357H286.153V28.0735H289.074V32.2973H286.153Z" fill="#005B26"/>
<path d="M307.88 36.2321H297.161C297.161 37.003 297.45 38.0308 298.06 38.6411C298.381 38.9623 299.023 39.3478 300.178 39.3478C300.306 39.3478 301.205 39.3157 301.847 38.9623C302.168 38.7696 302.521 38.4484 302.745 37.9987H307.672C307.447 38.8017 306.998 39.926 305.939 40.9538C304.88 41.9817 303.211 42.9453 300.082 42.9453C298.188 42.9453 295.894 42.5277 294.128 40.7611C293.198 39.8296 292.01 38.063 292.01 35.3167C292.01 32.9076 292.909 30.9643 294.161 29.7437C295.348 28.5874 297.209 27.6559 300.05 27.6559C301.718 27.6559 303.885 28.0092 305.586 29.6152C307.607 31.5425 307.864 34.0639 307.864 35.67V36.216L307.88 36.2321ZM303.147 33.277C303.018 32.7309 302.697 32.1207 302.312 31.7352C301.638 31.0607 300.707 30.9643 300.194 30.9643C299.327 30.9643 298.654 31.1892 298.108 31.7352C297.755 32.1207 297.434 32.6346 297.338 33.277H303.163H303.147Z" fill="#005B26"/>
<path d="M318.134 32.2973V42.4796H312.983V32.2973H311.346V28.0735H312.983V23.3357H318.134V28.0735H321.054V32.2973H318.134Z" fill="#005B26"/>
<path d="M330.586 40.5202L323.638 28.0895H329.623L333.458 35.4612L337.197 28.0895H343.086L331.532 49.8512H325.772L330.602 40.5202H330.586Z" fill="#005B26"/>
<path d="M356.516 42.1584C355.136 42.8329 354.013 42.9614 352.938 42.9614C350.146 42.9614 348.301 41.773 347.274 40.7772C345.926 39.4603 345.059 37.517 345.059 35.397C345.059 33.2771 345.926 31.2374 347.37 29.8241C348.718 28.5393 350.708 27.6399 353.163 27.6399C354.061 27.6399 355.217 27.8005 356.516 28.4429V32.7631C355.842 32.2813 354.944 31.8316 353.853 31.8316C352.633 31.8316 351.863 32.3134 351.349 32.8274C350.643 33.534 350.355 34.4655 350.355 35.3007C350.355 36.1358 350.643 37.0352 351.253 37.7097C351.735 38.2236 352.569 38.8018 353.885 38.8018C354.623 38.8018 355.586 38.6412 356.516 37.8382V42.1584Z" fill="#005B26"/>
<path d="M368.551 38.2557H374.568V42.4796H359.934L366.722 32.2973H360.929V28.0735H375.274L368.551 38.2557Z" fill="#005B26"/>
<path d="M379.286 28.0895H384.437V29.8883C385.849 28.0253 387.759 27.7683 389.01 27.7683C390.486 27.7683 392.059 28.1216 393.262 29.3101C394.482 30.5307 394.61 31.7513 394.61 33.3412V42.4796H389.459V35.2042C389.459 34.3691 389.492 33.1164 388.818 32.4097C388.336 31.8958 387.694 31.7994 387.181 31.7994C386.379 31.7994 385.705 32.0885 385.287 32.474C384.774 32.9558 384.453 33.8873 384.453 34.7545V42.4796H379.302V28.0895H379.286Z" fill="#005B26"/>
<path d="M410.849 28.0895H416V42.4795H410.849V40.9056C409.662 42.5438 407.8 42.9613 406.372 42.9613C404.832 42.9613 402.922 42.5116 401.189 40.6808C399.809 39.2032 399.135 37.549 399.135 35.3969C399.135 32.6988 400.194 30.7876 401.35 29.6313C402.569 28.4107 404.463 27.6077 406.533 27.6077C408.843 27.6077 410.239 28.7961 410.849 29.4707V28.0895ZM405.442 32.9236C404.736 33.5982 404.415 34.5297 404.415 35.2684C404.415 36.1036 404.768 37.0029 405.409 37.6132C405.955 38.1272 406.854 38.5769 407.72 38.5769C408.587 38.5769 409.389 38.2235 410.031 37.5811C410.48 37.1314 410.994 36.4248 410.994 35.2684C410.994 34.5939 410.801 33.6945 409.999 32.9236C409.517 32.4739 408.779 31.9921 407.688 31.9921C407.046 31.9921 406.18 32.217 405.442 32.9236Z" fill="#005B26"/>
<path d="M68.3251 60.5796H70.5074L74.6152 70.4406L78.9157 60.5796H81.0979L83.6974 76.0938H80.6326L79.2366 66.538L75.0806 76.0938H74.0536L70.0741 66.538L68.5016 76.0938H65.4368L68.3251 60.5796Z" fill="#005B26"/>
<path d="M94.9138 66.0241H97.7539V76.0939H94.9138V74.793C93.8868 76.2545 92.5389 76.4151 91.8168 76.4151C88.7199 76.4151 86.682 73.99 86.682 71.051C86.682 68.1119 88.7038 65.7029 91.6724 65.7029C92.4426 65.7029 93.951 65.8474 94.8977 67.325V66.0241H94.9138ZM89.6185 71.051C89.6185 72.657 90.7738 73.9097 92.4105 73.9097C94.0473 73.9097 95.2026 72.657 95.2026 71.051C95.2026 69.4449 94.0473 68.2083 92.4105 68.2083C90.7738 68.2083 89.6185 69.4449 89.6185 71.051Z" fill="#005B26"/>
<path d="M104.445 59.1342V64.0004L106.162 62.7477V64.8356L104.445 66.0883V76.0938H101.605V67.6301L99.8882 68.8828V66.7949L101.605 65.5422V59.1502H104.445V59.1342Z" fill="#005B26"/>
<path d="M115.966 66.0241H118.807V75.6282C118.807 77.1699 118.662 78.7599 117.411 80.0287C116.721 80.7193 115.501 81.442 113.431 81.442C111.474 81.442 110.318 80.8638 109.66 80.2856C108.874 79.6111 108.264 78.4226 108.04 77.2824H111.104C111.217 77.7481 111.474 78.2139 111.794 78.4869C112.356 79.0008 113.126 79.0169 113.511 79.0169C114.33 79.0169 114.859 78.7439 115.228 78.3905C115.886 77.7642 115.95 76.9772 115.95 76.1581V74.7448C114.972 76.2384 113.624 76.4151 112.854 76.4151C111.506 76.4151 110.35 75.9975 109.371 75.05C108.633 74.3112 107.767 73.0103 107.767 71.051C107.767 69.4771 108.345 67.9995 109.323 67.0519C110.206 66.1847 111.441 65.7029 112.789 65.7029C114.667 65.7029 115.549 66.7307 115.95 67.325V66.0241H115.966ZM111.618 68.9149C111.153 69.3325 110.719 70.007 110.719 71.051C110.719 71.9343 111.04 72.5928 111.457 73.0264C112.067 73.6849 112.821 73.9097 113.495 73.9097C114.169 73.9097 114.891 73.6527 115.373 73.2191C115.95 72.6891 116.271 71.87 116.271 71.051C116.271 70.1034 115.854 69.4449 115.453 69.0274C114.891 68.4492 114.25 68.2083 113.479 68.2083C112.581 68.2083 111.939 68.5777 111.602 68.8989L111.618 68.9149Z" fill="#005B26"/>
<path d="M131.981 67.1162C132.976 68.0156 133.682 69.4128 133.682 71.067C133.682 72.7212 132.992 74.0864 131.981 75.0018C131.114 75.7888 129.814 76.4151 127.921 76.4151C126.028 76.4151 124.712 75.7888 123.861 75.0018C122.866 74.1024 122.16 72.7052 122.16 71.067C122.16 69.4289 122.85 68.0156 123.861 67.1162C124.728 66.3292 126.028 65.7029 127.921 65.7029C129.814 65.7029 131.13 66.3292 131.981 67.1162ZM130.745 71.067C130.745 69.4931 129.542 68.2083 127.905 68.2083C126.268 68.2083 125.065 69.4931 125.065 71.067C125.065 72.6409 126.252 73.9097 127.905 73.9097C129.558 73.9097 130.745 72.6088 130.745 71.067Z" fill="#005B26"/>
<path d="M137.035 66.0241H139.876V67.5338C140.325 66.6665 140.919 66.2489 141.127 66.1365C141.56 65.8635 142.122 65.7029 142.796 65.7029C143.277 65.7029 143.678 65.8153 143.999 65.9277L143.63 68.5777C143.261 68.3207 142.892 68.2083 142.299 68.2083C141.769 68.2083 140.967 68.3207 140.421 69.0274C139.892 69.7019 139.859 70.5692 139.859 71.2597V76.0939H137.019V66.0241H137.035Z" fill="#005B26"/>
<path d="M150.209 73.6688H155.537V76.0939H145.235L150.947 68.4492H146.118V66.024H155.922L150.209 73.6688Z" fill="#005B26"/>
<path d="M166.207 66.0241H169.048V76.0939H166.207V74.793C165.18 76.2545 163.833 76.4151 163.111 76.4151C160.014 76.4151 157.976 73.99 157.976 71.051C157.976 68.1119 159.998 65.7029 162.966 65.7029C163.736 65.7029 165.245 65.8474 166.191 67.325V66.0241H166.207ZM160.912 71.051C160.912 72.657 162.068 73.9097 163.704 73.9097C165.341 73.9097 166.496 72.657 166.496 71.051C166.496 69.4449 165.341 68.2083 163.704 68.2083C162.068 68.2083 160.912 69.4449 160.912 71.051Z" fill="#005B26"/>
<path d="M175.739 68.4331V76.0778H172.899V68.4331H171.792V66.0079H172.899V62.571H175.739V66.0079H177.697V68.4331H175.739Z" fill="#005B26"/>
<path d="M188.046 66.0241H190.887V76.0939H188.046V74.793C187.019 76.2545 185.672 76.4151 184.95 76.4151C181.853 76.4151 179.815 73.99 179.815 71.051C179.815 68.1119 181.837 65.7029 184.805 65.7029C185.575 65.7029 187.084 65.8474 188.03 67.325V66.0241H188.046ZM182.751 71.051C182.751 72.657 183.907 73.9097 185.543 73.9097C187.18 73.9097 188.335 72.657 188.335 71.051C188.335 69.4449 187.18 68.2083 185.543 68.2083C183.907 68.2083 182.751 69.4449 182.751 71.051Z" fill="#005B26"/>
<path d="M205.585 60.5796C206.451 60.5796 208.12 60.5796 209.372 61.5593C210.271 62.2499 210.816 63.4704 210.816 64.7713C210.816 66.7789 209.484 67.5819 209.067 67.8228C210.094 67.9834 210.688 68.4331 211.089 68.8025C212.02 69.6858 212.196 70.8903 212.196 71.7094C212.196 72.6088 211.939 73.8936 210.864 74.8572C209.709 75.8851 208.281 76.1099 206.933 76.1099H201.734V60.5956H205.569L205.585 60.5796ZM204.767 67.0198H205.633C206.098 67.0198 207.976 66.9716 207.976 64.9962C207.976 63.5829 206.885 63.0368 205.649 63.0368H204.767V67.0198ZM204.767 73.6206H206.066C206.628 73.6206 207.462 73.6045 208.136 73.203C208.874 72.7533 209.083 72.0145 209.083 71.4042C209.083 70.9224 208.923 70.0712 207.944 69.6376C207.286 69.3325 206.532 69.3325 205.874 69.3325H204.751V73.6045L204.767 73.6206Z" fill="#005B26"/>
<path d="M223.445 66.0241H226.285V76.0939H223.445V74.793C222.418 76.2545 221.07 76.4151 220.348 76.4151C217.251 76.4151 215.213 73.99 215.213 71.051C215.213 68.1119 217.235 65.7029 220.203 65.7029C220.973 65.7029 222.482 65.8474 223.428 67.325V66.0241H223.445ZM218.149 71.051C218.149 72.657 219.305 73.9097 220.941 73.9097C222.578 73.9097 223.733 72.657 223.733 71.051C223.733 69.4449 222.578 68.2083 220.941 68.2083C219.305 68.2083 218.149 69.4449 218.149 71.051Z" fill="#005B26"/>
<path d="M230.152 66.0241H232.992V67.5338C233.441 66.6665 234.035 66.2489 234.244 66.1365C234.677 65.8635 235.239 65.7029 235.913 65.7029C236.394 65.7029 236.795 65.8153 237.116 65.9277L236.747 68.5777C236.378 68.3207 236.009 68.2083 235.415 68.2083C234.886 68.2083 234.083 68.3207 233.538 69.0274C233.008 69.7019 232.976 70.5692 232.976 71.2597V76.0939H230.136V66.0241H230.152Z" fill="#005B26"/>
<path d="M248.766 67.1162C249.761 68.0156 250.467 69.4128 250.467 71.067C250.467 72.7212 249.777 74.0864 248.766 75.0018C247.899 75.7888 246.599 76.4151 244.706 76.4151C242.812 76.4151 241.497 75.7888 240.646 75.0018C239.651 74.1024 238.945 72.7052 238.945 71.067C238.945 69.4289 239.635 68.0156 240.646 67.1162C241.513 66.3292 242.812 65.7029 244.706 65.7029C246.599 65.7029 247.915 66.3292 248.766 67.1162ZM247.53 71.067C247.53 69.4931 246.327 68.2083 244.69 68.2083C243.053 68.2083 241.85 69.4931 241.85 71.067C241.85 72.6409 243.037 73.9097 244.69 73.9097C246.343 73.9097 247.53 72.6088 247.53 71.067Z" fill="#005B26"/>
<path d="M253.804 66.0241H256.644V67.325C257.174 66.5862 258.137 65.7029 259.757 65.7029C260.64 65.7029 261.94 65.9598 262.726 66.9395C263.416 67.8068 263.512 68.8025 263.512 69.7822V76.11H260.672V70.6173C260.672 70.0552 260.656 69.1719 260.142 68.6419C259.709 68.1762 259.099 68.128 258.811 68.128C258.072 68.128 257.479 68.385 257.061 69.0113C256.644 69.6698 256.612 70.3764 256.612 70.9707V76.11H253.772V66.0401L253.804 66.0241Z" fill="#005B26"/>
<path d="M27.4873 24.0101C28.8512 22.388 32.3333 17.6824 32.3333 12.1255C32.3333 6.56864 28.8352 1.87903 27.4873 0.256938C27.1985 -0.0963883 26.7171 -0.0963883 26.4283 0.256938C25.0804 1.87903 21.5823 6.5847 21.5823 12.1416C21.5823 17.6984 25.0804 22.4041 26.4283 24.0262C26.7171 24.3795 27.1985 24.3795 27.4873 24.0262V24.0101ZM26.6208 4.46474C26.8134 4.23989 27.1182 4.23989 27.3108 4.46474C28.1933 5.50866 30.4398 8.54406 30.4398 12.1416C30.4398 15.7391 28.1773 18.7745 27.3108 19.8184C27.1182 20.0432 26.8134 20.0432 26.6208 19.8184C25.7383 18.7745 23.4918 15.7391 23.4918 12.1416C23.4918 8.54406 25.7543 5.50866 26.6208 4.46474Z" fill="#005B26"/>
<path d="M23.7967 70.5048C22.85 70.5048 22.0637 71.2757 22.0637 72.2232V96.2655C22.0637 97.213 22.8339 97.9839 23.7967 97.9839C24.7595 97.9839 25.5137 97.213 25.5137 96.2655V72.2232C25.5137 71.2757 24.7435 70.5048 23.7967 70.5048Z" fill="#005B26"/>
<path d="M30.1029 70.5048C29.1562 70.5048 28.386 71.2757 28.386 72.2232V96.2655C28.386 97.213 29.1562 97.9839 30.1029 97.9839C31.0497 97.9839 31.8199 97.213 31.8199 96.2655V72.2232C31.8199 71.2757 31.0497 70.5048 30.1029 70.5048Z" fill="#005B26"/>
<path d="M42.1055 38.3359C47.5772 32.8593 48.7647 24.781 49.0214 21.842C49.0695 21.1996 48.6042 20.7338 47.9784 20.7981C45.0419 21.055 36.9706 22.2435 31.4989 27.72C29.5091 29.7115 28.081 32.0563 27.0701 34.3851C25.8185 31.2533 23.9892 27.9931 21.2613 25.2628C14.6182 18.6299 4.82992 17.1845 1.26765 16.8633C0.497425 16.799 -0.064195 17.3611 -9.80357e-06 18.132C0.30487 21.6974 1.76508 31.4942 8.3922 38.1432C13.3986 43.154 20.1862 45.2097 24.7434 46.0449V50.3651C24.7434 52.8223 23.4597 55.1029 21.3736 56.3716C18.0521 58.3792 15.8216 59.5516 15.8216 63.663V96.1851C15.8216 97.3575 16.5116 97.8875 17.2658 97.8875C18.02 97.8875 18.7421 97.3575 18.726 96.1851V67.6299C18.726 63.3418 20.2344 57.1586 26.9417 57.1586C33.6491 57.1586 35.1574 63.3418 35.1574 67.6299V96.2494C35.1414 97.3415 35.703 98.016 36.5695 98.016C37.5162 98.016 38.0939 97.4218 38.0618 96.2815V63.647C38.0618 59.6158 32.927 56.6125 32.6702 56.468C30.52 55.1671 29.1401 52.8865 29.1401 50.3651V44.76C32.8788 44.0052 38.1581 42.2867 42.0894 38.352L42.1055 38.3359ZM23.6041 41.291C21.3095 41.0822 14.9872 40.1507 10.6868 35.8626C6.40246 31.5745 5.47178 25.2468 5.26317 22.9341C5.21503 22.4362 5.5841 22.0668 6.08153 22.115C8.37615 22.3238 14.6984 23.2553 18.9988 27.5434C23.2832 31.8315 24.2138 38.1592 24.4224 40.4719C24.4706 40.9698 24.1015 41.3392 23.6041 41.291ZM28.9154 40.2631C29.0759 38.368 29.8461 33.1484 33.3923 29.6152C36.9385 26.0819 42.1376 25.311 44.031 25.1343C44.4322 25.1022 44.737 25.3913 44.705 25.8089C44.5445 27.704 43.7743 32.9236 40.228 36.4569C36.6979 39.9901 31.4828 40.761 29.5893 40.9377C29.1882 40.9698 28.8833 40.6646 28.9154 40.2631Z" fill="#005B26"/>
</g>
<defs>
<clipPath id="clip0_177_394">
<rect width="416" height="98" fill="white"/>
</clipPath>
</defs>
</svg>
