<svg width="197" height="47" viewBox="0 0 197 47" fill="none" xmlns="http://www.w3.org/2000/svg">
<path d="M35.059 17.0353V20.4087H32.4355V10.2277H36.6164C37.4934 10.2277 38.4082 10.3952 39.1793 11.1414C39.9656 11.9029 40.1168 12.7634 40.1168 13.6163C40.1168 14.4234 40.011 15.3753 39.2247 16.152C38.4384 16.9287 37.4934 17.0353 36.7071 17.0353H35.0514H35.059ZM35.059 14.8956H35.936C36.2081 14.8956 36.7222 14.8651 37.0398 14.5757C37.3573 14.3016 37.3724 13.8904 37.3724 13.6467C37.3724 13.3726 37.3422 13.0071 37.07 12.7329C36.7676 12.4131 36.2837 12.3674 35.9511 12.3674H35.059V14.9032V14.8956Z" fill="#6DBB7E"/>
<path d="M48.4861 19.5101C47.594 20.3934 46.5431 20.6371 45.4544 20.6371C44.4716 20.6371 43.3753 20.4391 42.4379 19.5101C41.6969 18.7791 41.3945 17.911 41.3945 16.9896C41.3945 15.7712 41.9389 14.9716 42.4379 14.4843C42.9973 13.936 43.9802 13.3573 45.4544 13.3573C46.9287 13.3573 47.9266 13.9513 48.4861 14.4843C48.9851 14.9716 49.5294 15.7636 49.5294 16.9896C49.5294 17.9034 49.227 18.7791 48.4861 19.5101ZM44.3809 15.8778C44.0784 16.1672 43.9121 16.5936 43.9121 16.9896C43.9121 17.3855 44.1087 17.7967 44.3809 18.0709C44.6681 18.3602 45.0613 18.5278 45.4695 18.5278C45.8778 18.5278 46.2558 18.3602 46.5431 18.0709C46.8455 17.7815 47.0118 17.3855 47.0118 16.9896C47.0118 16.6241 46.8455 16.1824 46.5431 15.8778C46.2709 15.6189 45.8475 15.4361 45.4695 15.4361C45.0915 15.4361 44.653 15.6189 44.3809 15.8778Z" fill="#6DBB7E"/>
<path d="M51.6846 13.5857H54.1114V14.6975C54.3534 14.2406 54.7011 13.936 55.064 13.7533C55.4269 13.5553 55.8654 13.4791 56.319 13.4791C56.3795 13.4791 56.4854 13.4944 56.8029 13.5096V15.8169C56.6819 15.756 56.3493 15.5732 55.7596 15.5732C55.442 15.5732 55.0035 15.6189 54.6558 15.9387C54.1417 16.4108 54.1114 17.1266 54.1114 17.4921V20.4086H51.6846V13.5857Z" fill="#6DBB7E"/>
<path d="M63.8862 13.5857H66.3131V20.4086H63.8862V19.6624C63.3267 20.4391 62.4498 20.6371 61.7769 20.6371C61.0511 20.6371 60.1514 20.4239 59.3349 19.5558C58.6847 18.8552 58.3672 18.0709 58.3672 17.0505C58.3672 15.7712 58.8662 14.865 59.4105 14.3168C59.9851 13.738 60.8772 13.3573 61.8525 13.3573C62.9412 13.3573 63.5989 13.9208 63.8862 14.2406V13.5857ZM61.3384 15.8778C61.0057 16.1976 60.8545 16.6393 60.8545 16.9896C60.8545 17.3855 61.0209 17.812 61.3233 18.1013C61.5803 18.345 62.0037 18.5582 62.412 18.5582C62.8202 18.5582 63.1982 18.3907 63.5006 18.0861C63.7123 17.8729 63.9542 17.5378 63.9542 16.9896C63.9542 16.6698 63.8635 16.2433 63.4855 15.8778C63.2587 15.6646 62.9109 15.4361 62.3968 15.4361C62.0944 15.4361 61.6862 15.5428 61.3384 15.8778Z" fill="#6DBB7E"/>
<path d="M76.4068 20.4086H73.98V19.6624C73.2995 20.5457 72.4074 20.6371 71.9311 20.6371C70.9634 20.6371 70.1847 20.3173 69.5496 19.6928C68.8692 19.0227 68.4609 18.0557 68.4609 16.9744C68.4609 15.8169 68.9448 14.865 69.5647 14.2711C70.23 13.6314 71.1222 13.3573 71.9614 13.3573C72.8837 13.3573 73.5339 13.7685 73.98 14.2406V9.27576H76.4068V20.4086ZM73.5415 18.147C73.859 17.8577 74.0556 17.4008 74.0556 16.9896C74.0556 16.6088 73.8439 16.152 73.6019 15.893C73.3298 15.6037 72.9518 15.4362 72.4981 15.4362C71.984 15.4362 71.6363 15.6646 71.4246 15.8778C71.1524 16.152 70.9558 16.5784 70.9558 17.0353C70.9558 17.3856 71.107 17.7815 71.4246 18.1013C71.7572 18.4364 72.1504 18.5582 72.4981 18.5582C72.8913 18.5582 73.2844 18.3755 73.5415 18.147Z" fill="#6DBB7E"/>
<path d="M78.833 13.5858H81.2599V14.4386C81.9252 13.5553 82.8249 13.4335 83.4146 13.4335C84.1101 13.4335 84.851 13.601 85.418 14.1645C85.9926 14.7432 86.0531 15.3219 86.0531 16.0758V20.4087H83.6262V16.9591C83.6262 16.5632 83.6414 15.9692 83.3238 15.6342C83.097 15.3905 82.7946 15.3448 82.5527 15.3448C82.1747 15.3448 81.8571 15.4819 81.6606 15.6646C81.4186 15.8931 81.2674 16.3347 81.2674 16.7459V20.4087H78.8406V13.5858H78.833Z" fill="#6DBB7E"/>
<path d="M89.6665 9.36719C90.4225 9.36719 91.0274 9.97637 91.0274 10.7379C91.0274 11.4993 90.4225 12.1085 89.6665 12.1085C88.9105 12.1085 88.3057 11.4993 88.3057 10.7379C88.3057 9.97637 88.9105 9.36719 89.6665 9.36719ZM90.8762 13.5782V20.4011H88.4493V13.5782H90.8762Z" fill="#6DBB7E"/>
<path d="M98.5346 13.5857H100.962V20.4086H98.5346V19.6624C97.9752 20.4391 97.0982 20.6371 96.4253 20.6371C95.6995 20.6371 94.7999 20.4239 93.9833 19.5558C93.3332 18.8552 93.0156 18.0709 93.0156 17.0505C93.0156 15.7712 93.5146 14.865 94.0589 14.3168C94.6335 13.738 95.5256 13.3573 96.5009 13.3573C97.5896 13.3573 98.2473 13.9208 98.5346 14.2406V13.5857ZM95.9868 15.8778C95.6542 16.1976 95.503 16.6393 95.503 16.9896C95.503 17.3855 95.6693 17.812 95.9717 18.1013C96.2288 18.345 96.6521 18.5582 97.0604 18.5582C97.4686 18.5582 97.8467 18.3907 98.1491 18.0861C98.3608 17.8729 98.6027 17.5378 98.6027 16.9896C98.6027 16.6698 98.512 16.2433 98.1339 15.8778C97.9071 15.6646 97.5594 15.4361 97.0453 15.4361C96.7429 15.4361 96.3346 15.5428 95.9868 15.8778Z" fill="#6DBB7E"/>
<path d="M107.902 20.4087V10.2277H111.342C112.355 10.2277 114.056 10.3647 115.357 11.6288C116.536 12.771 116.763 14.2407 116.763 15.3372C116.763 16.6774 116.43 17.873 115.448 18.8629C114.646 19.6701 113.293 20.4011 111.569 20.4011H107.902V20.4087ZM110.526 18.1623H111.055C111.69 18.1623 112.59 18.1014 113.27 17.4313C113.603 17.1115 114.041 16.4718 114.041 15.3372C114.041 14.393 113.754 13.5782 113.255 13.1061C112.635 12.5273 111.819 12.4664 111.161 12.4664H110.526V18.1623Z" fill="#6DBB7E"/>
<path d="M120.18 9.36719C120.936 9.36719 121.541 9.97637 121.541 10.7379C121.541 11.4993 120.936 12.1085 120.18 12.1085C119.424 12.1085 118.819 11.4993 118.819 10.7379C118.819 9.97637 119.424 9.36719 120.18 9.36719ZM121.39 13.5782V20.4011H118.963V13.5782H121.39Z" fill="#6DBB7E"/>
<path d="M130.992 17.4464H125.941C125.941 17.812 126.078 18.2993 126.365 18.5887C126.516 18.741 126.818 18.9237 127.363 18.9237C127.423 18.9237 127.847 18.9085 128.149 18.741C128.3 18.6496 128.467 18.4973 128.572 18.2841H130.893C130.788 18.6648 130.576 19.1979 130.077 19.6852C129.578 20.1726 128.792 20.6294 127.317 20.6294C126.425 20.6294 125.344 20.4315 124.513 19.5938C124.074 19.1522 123.515 18.3145 123.515 17.0124C123.515 15.8702 123.938 14.9488 124.528 14.3701C125.087 13.8218 125.964 13.3801 127.302 13.3801C128.089 13.3801 129.109 13.5477 129.911 14.3091C130.863 15.2229 130.984 16.4184 130.984 17.1799V17.4388L130.992 17.4464ZM128.761 16.0453C128.701 15.7864 128.55 15.4971 128.368 15.3143C128.051 14.9945 127.612 14.9488 127.37 14.9488C126.962 14.9488 126.645 15.0554 126.388 15.3143C126.221 15.4971 126.07 15.7407 126.025 16.0453H128.769H128.761Z" fill="#6DBB7E"/>
<path d="M135.823 15.5809V20.4087H133.396V15.5809H132.625V13.5782H133.396V11.3318H135.823V13.5782H137.199V15.5809H135.823Z" fill="#6DBB7E"/>
<path d="M146.059 17.4464H141.009C141.009 17.812 141.145 18.2993 141.432 18.5887C141.583 18.741 141.886 18.9237 142.43 18.9237C142.491 18.9237 142.914 18.9085 143.216 18.741C143.368 18.6496 143.534 18.4973 143.64 18.2841H145.961C145.855 18.6648 145.643 19.1979 145.144 19.6852C144.645 20.1726 143.859 20.6294 142.385 20.6294C141.493 20.6294 140.412 20.4315 139.58 19.5938C139.141 19.1522 138.582 18.3145 138.582 17.0124C138.582 15.8702 139.005 14.9488 139.595 14.3701C140.155 13.8218 141.032 13.3801 142.37 13.3801C143.156 13.3801 144.177 13.5477 144.978 14.3091C145.931 15.2229 146.052 16.4184 146.052 17.1799V17.4388L146.059 17.4464ZM143.829 16.0453C143.768 15.7864 143.617 15.4971 143.436 15.3143C143.118 14.9945 142.68 14.9488 142.438 14.9488C142.03 14.9488 141.712 15.0554 141.455 15.3143C141.289 15.4971 141.137 15.7407 141.092 16.0453H143.836H143.829Z" fill="#6DBB7E"/>
<path d="M150.89 15.5809V20.4087H148.464V15.5809H147.692V13.5782H148.464V11.3318H150.89V13.5782H152.266V15.5809H150.89Z" fill="#6DBB7E"/>
<path d="M156.757 19.4796L153.483 13.5857H156.303L158.11 17.0809L159.872 13.5857H162.646L157.203 23.9038H154.489L156.765 19.4796H156.757Z" fill="#6DBB7E"/>
<path d="M168.974 20.2564C168.324 20.5762 167.795 20.6371 167.288 20.6371C165.973 20.6371 165.103 20.0736 164.619 19.6015C163.984 18.9771 163.576 18.0557 163.576 17.0505C163.576 16.0454 163.984 15.0783 164.665 14.4082C165.3 13.799 166.237 13.3726 167.394 13.3726C167.818 13.3726 168.362 13.4487 168.974 13.7533V15.8017C168.657 15.5732 168.233 15.36 167.719 15.36C167.145 15.36 166.782 15.5885 166.54 15.8322C166.207 16.1672 166.071 16.6089 166.071 17.0048C166.071 17.4008 166.207 17.8272 166.494 18.1471C166.721 18.3907 167.114 18.6649 167.734 18.6649C168.082 18.6649 168.536 18.5887 168.974 18.208V20.2564Z" fill="#6DBB7E"/>
<path d="M174.645 18.4061H177.48V20.4088H170.585L173.783 15.5809H171.054V13.5782H177.813L174.645 18.4061Z" fill="#6DBB7E"/>
<path d="M179.703 13.5858H182.13V14.4386C182.795 13.5553 183.695 13.4335 184.285 13.4335C184.98 13.4335 185.721 13.601 186.288 14.1645C186.863 14.7432 186.923 15.3219 186.923 16.0758V20.4087H184.496V16.9591C184.496 16.5632 184.511 15.9692 184.194 15.6342C183.967 15.3905 183.665 15.3448 183.423 15.3448C183.045 15.3448 182.727 15.4819 182.531 15.6646C182.289 15.8931 182.138 16.3347 182.138 16.7459V20.4087H179.711V13.5858H179.703Z" fill="#6DBB7E"/>
<path d="M194.574 13.5857H197.001V20.4086H194.574V19.6624C194.014 20.4391 193.137 20.6371 192.464 20.6371C191.739 20.6371 190.839 20.4239 190.022 19.5558C189.372 18.8552 189.055 18.0709 189.055 17.0505C189.055 15.7712 189.554 14.865 190.098 14.3168C190.673 13.738 191.565 13.3573 192.54 13.3573C193.629 13.3573 194.286 13.9208 194.574 14.2406V13.5857ZM192.026 15.8778C191.693 16.1976 191.542 16.6393 191.542 16.9896C191.542 17.3855 191.708 17.812 192.011 18.1013C192.268 18.345 192.691 18.5582 193.099 18.5582C193.508 18.5582 193.886 18.3907 194.188 18.0861C194.4 17.8729 194.642 17.5378 194.642 16.9896C194.642 16.6698 194.551 16.2433 194.173 15.8778C193.946 15.6646 193.598 15.4361 193.084 15.4361C192.782 15.4361 192.374 15.5428 192.026 15.8778Z" fill="#6DBB7E"/>
<path d="M33.1909 28.9905H34.2191L36.1546 33.666L38.1807 28.9905H39.2089L40.4337 36.3464H38.9897L38.3319 31.8156L36.3738 36.3464H35.89L34.015 31.8156L33.2741 36.3464H31.8301L33.1909 28.9905Z" fill="#10552D"/>
<path d="M45.7183 31.572H47.0564V36.3465H45.7183V35.7297C45.2344 36.4226 44.5994 36.4988 44.2591 36.4988C42.8 36.4988 41.8398 35.3489 41.8398 33.9554C41.8398 32.5619 42.7924 31.4197 44.1911 31.4197C44.554 31.4197 45.2647 31.4882 45.7107 32.1888V31.572H45.7183ZM43.2234 33.9554C43.2234 34.7169 43.7677 35.3109 44.5389 35.3109C45.31 35.3109 45.8544 34.7169 45.8544 33.9554C45.8544 33.1939 45.31 32.6076 44.5389 32.6076C43.7677 32.6076 43.2234 33.1939 43.2234 33.9554Z" fill="#10552D"/>
<path d="M50.2086 28.3052V30.6125L51.0176 30.0185V31.0084L50.2086 31.6024V36.3464H48.8705V32.3334L48.0615 32.9274V31.9375L48.8705 31.3435V28.3128H50.2086V28.3052Z" fill="#10552D"/>
<path d="M55.6377 31.572H56.9759V36.1256C56.9759 36.8567 56.9079 37.6105 56.3182 38.2121C55.9931 38.5395 55.4185 38.8822 54.4432 38.8822C53.5208 38.8822 52.9765 38.6081 52.6665 38.3339C52.2961 38.0141 52.0088 37.4506 51.9029 36.91H53.347C53.3999 37.1308 53.5208 37.3516 53.672 37.4811C53.9367 37.7248 54.2996 37.7324 54.481 37.7324C54.8666 37.7324 55.1161 37.6029 55.2899 37.4354C55.5999 37.1384 55.6302 36.7653 55.6302 36.3769V35.7068C55.169 36.415 54.5339 36.4988 54.171 36.4988C53.536 36.4988 52.9916 36.3008 52.5304 35.8515C52.1827 35.5012 51.7744 34.8844 51.7744 33.9554C51.7744 33.2092 52.0466 32.5086 52.5078 32.0593C52.9236 31.6481 53.5057 31.4197 54.1408 31.4197C55.0253 31.4197 55.4412 31.907 55.6302 32.1888V31.572H55.6377ZM53.5889 32.9426C53.3696 33.1406 53.1655 33.4605 53.1655 33.9554C53.1655 34.3742 53.3167 34.6864 53.5133 34.892C53.8006 35.2043 54.1559 35.3109 54.4734 35.3109C54.791 35.3109 55.1312 35.189 55.358 34.9834C55.6302 34.7321 55.7814 34.3438 55.7814 33.9554C55.7814 33.5061 55.5848 33.1939 55.3958 32.9959C55.1312 32.7218 54.8288 32.6076 54.4659 32.6076C54.0425 32.6076 53.7401 32.7827 53.5813 32.935L53.5889 32.9426Z" fill="#10552D"/>
<path d="M63.1826 32.0898C63.6513 32.5162 63.984 33.1787 63.984 33.963C63.984 34.7474 63.6589 35.3946 63.1826 35.8287C62.7743 36.2018 62.1619 36.4988 61.2698 36.4988C60.3777 36.4988 59.7578 36.2018 59.3571 35.8287C58.8883 35.4022 58.5557 34.7397 58.5557 33.963C58.5557 33.1863 58.8808 32.5162 59.3571 32.0898C59.7653 31.7167 60.3777 31.4197 61.2698 31.4197C62.1619 31.4197 62.7819 31.7167 63.1826 32.0898ZM62.6004 33.963C62.6004 33.2168 62.0334 32.6076 61.2623 32.6076C60.4911 32.6076 59.9241 33.2168 59.9241 33.963C59.9241 34.7093 60.4835 35.3109 61.2623 35.3109C62.041 35.3109 62.6004 34.6941 62.6004 33.963Z" fill="#10552D"/>
<path d="M65.5642 31.572H66.9024V32.2878C67.1141 31.8766 67.3938 31.6786 67.4921 31.6253C67.6962 31.4958 67.9608 31.4197 68.2783 31.4197C68.5052 31.4197 68.6942 31.473 68.8454 31.5263L68.6715 32.7827C68.4976 32.6609 68.3237 32.6076 68.044 32.6076C67.7945 32.6076 67.4165 32.6609 67.1594 32.9959C66.9099 33.3158 66.8948 33.727 66.8948 34.0544V36.3465H65.5566V31.572H65.5642Z" fill="#10552D"/>
<path d="M71.7714 35.1967H74.2814V36.3465H69.4277L72.1192 32.7219H69.8435V31.572H74.4629L71.7714 35.1967Z" fill="#10552D"/>
<path d="M79.3091 31.572H80.6473V36.3465H79.3091V35.7297C78.8252 36.4226 78.1902 36.4988 77.85 36.4988C76.3908 36.4988 75.4307 35.3489 75.4307 33.9554C75.4307 32.5619 76.3833 31.4197 77.7819 31.4197C78.1448 31.4197 78.8555 31.4882 79.3015 32.1888V31.572H79.3091ZM76.8142 33.9554C76.8142 34.7169 77.3585 35.3109 78.1297 35.3109C78.9008 35.3109 79.4452 34.7169 79.4452 33.9554C79.4452 33.1939 78.9008 32.6076 78.1297 32.6076C77.3585 32.6076 76.8142 33.1939 76.8142 33.9554Z" fill="#10552D"/>
<path d="M83.8003 32.7141V36.3388H82.4621V32.7141H81.9404V31.5643H82.4621V29.9347H83.8003V31.5643H84.7226V32.7141H83.8003Z" fill="#10552D"/>
<path d="M89.5991 31.572H90.9373V36.3465H89.5991V35.7297C89.1153 36.4226 88.4802 36.4988 88.14 36.4988C86.6809 36.4988 85.7207 35.3489 85.7207 33.9554C85.7207 32.5619 86.6733 31.4197 88.072 31.4197C88.4349 31.4197 89.1455 31.4882 89.5916 32.1888V31.572H89.5991ZM87.1042 33.9554C87.1042 34.7169 87.6486 35.3109 88.4197 35.3109C89.1909 35.3109 89.7352 34.7169 89.7352 33.9554C89.7352 33.1939 89.1909 32.6076 88.4197 32.6076C87.6486 32.6076 87.1042 33.1939 87.1042 33.9554Z" fill="#10552D"/>
<path d="M97.8613 28.9905C98.2696 28.9905 99.0559 28.9905 99.6456 29.455C100.069 29.7824 100.326 30.3611 100.326 30.978C100.326 31.9298 99.6985 32.3105 99.5019 32.4248C99.9858 32.5009 100.266 32.7141 100.455 32.8893C100.893 33.3081 100.976 33.8792 100.976 34.2676C100.976 34.694 100.855 35.3032 100.349 35.7601C99.8043 36.2474 99.1315 36.354 98.4964 36.354H96.0469V28.9981H97.8538L97.8613 28.9905ZM97.4758 32.044H97.884C98.1033 32.044 98.9878 32.0212 98.9878 31.0846C98.9878 30.4145 98.4737 30.1555 97.8916 30.1555H97.4758V32.044ZM97.4758 35.1737H98.0882C98.3528 35.1737 98.7459 35.1661 99.0634 34.9757C99.4112 34.7625 99.5095 34.4122 99.5095 34.1229C99.5095 33.8944 99.4339 33.4908 98.9727 33.2852C98.6627 33.1406 98.3074 33.1406 97.9974 33.1406H97.4682V35.1661L97.4758 35.1737Z" fill="#10552D"/>
<path d="M106.277 31.572H107.615V36.3465H106.277V35.7297C105.793 36.4226 105.158 36.4988 104.818 36.4988C103.359 36.4988 102.398 35.3489 102.398 33.9554C102.398 32.5619 103.351 31.4197 104.75 31.4197C105.113 31.4197 105.823 31.4882 106.269 32.1888V31.572H106.277ZM103.782 33.9554C103.782 34.7169 104.326 35.3109 105.097 35.3109C105.869 35.3109 106.413 34.7169 106.413 33.9554C106.413 33.1939 105.869 32.6076 105.097 32.6076C104.326 32.6076 103.782 33.1939 103.782 33.9554Z" fill="#10552D"/>
<path d="M109.436 31.572H110.774V32.2878C110.986 31.8766 111.266 31.6786 111.364 31.6253C111.568 31.4958 111.833 31.4197 112.15 31.4197C112.377 31.4197 112.566 31.473 112.717 31.5263L112.544 32.7827C112.37 32.6609 112.196 32.6076 111.916 32.6076C111.667 32.6076 111.289 32.6609 111.031 32.9959C110.782 33.3158 110.767 33.727 110.767 34.0544V36.3465H109.429V31.572H109.436Z" fill="#10552D"/>
<path d="M118.207 32.0898C118.676 32.5162 119.008 33.1787 119.008 33.963C119.008 34.7474 118.683 35.3946 118.207 35.8287C117.799 36.2018 117.186 36.4988 116.294 36.4988C115.402 36.4988 114.782 36.2018 114.381 35.8287C113.913 35.4022 113.58 34.7397 113.58 33.963C113.58 33.1863 113.905 32.5162 114.381 32.0898C114.79 31.7167 115.402 31.4197 116.294 31.4197C117.186 31.4197 117.806 31.7167 118.207 32.0898ZM117.625 33.963C117.625 33.2168 117.058 32.6076 116.287 32.6076C115.516 32.6076 114.948 33.2168 114.948 33.963C114.948 34.7093 115.508 35.3109 116.287 35.3109C117.065 35.3109 117.625 34.6941 117.625 33.963Z" fill="#10552D"/>
<path d="M120.581 31.572H121.919V32.1888C122.168 31.8385 122.622 31.4197 123.385 31.4197C123.801 31.4197 124.414 31.5415 124.784 32.006C125.109 32.4172 125.155 32.8893 125.155 33.3538V36.3541H123.816V33.7498C123.816 33.4833 123.809 33.0645 123.567 32.8132C123.363 32.5924 123.075 32.5695 122.939 32.5695C122.592 32.5695 122.312 32.6914 122.115 32.9883C121.919 33.3005 121.904 33.6356 121.904 33.9173V36.3541H120.565V31.5796L120.581 31.572Z" fill="#10552D"/>
<path d="M13.9502 11.6517C14.5928 10.8826 16.2334 8.65141 16.2334 6.01668C16.2334 3.38195 14.5852 1.15841 13.9502 0.389317C13.8141 0.22179 13.5873 0.22179 13.4512 0.389317C12.8161 1.15841 11.168 3.38956 11.168 6.02429C11.168 8.65902 12.8161 10.8902 13.4512 11.6593C13.5873 11.8268 13.8141 11.8268 13.9502 11.6593V11.6517ZM13.5419 2.3844C13.6326 2.2778 13.7763 2.2778 13.867 2.3844C14.2828 2.87937 15.3413 4.31857 15.3413 6.02429C15.3413 7.73001 14.2753 9.16922 13.867 9.66418C13.7763 9.77079 13.6326 9.77079 13.5419 9.66418C13.1261 9.16922 12.0676 7.73001 12.0676 6.02429C12.0676 4.31857 13.1336 2.87937 13.5419 2.3844Z" fill="#10552D"/>
<path d="M12.211 33.6965C11.765 33.6965 11.3945 34.062 11.3945 34.5113V45.9107C11.3945 46.36 11.7574 46.7255 12.211 46.7255C12.6647 46.7255 13.02 46.36 13.02 45.9107V34.5113C13.02 34.062 12.6571 33.6965 12.211 33.6965Z" fill="#10552D"/>
<path d="M15.182 33.6965C14.7359 33.6965 14.373 34.062 14.373 34.5113V45.9107C14.373 46.36 14.7359 46.7255 15.182 46.7255C15.6281 46.7255 15.991 46.36 15.991 45.9107V34.5113C15.991 34.062 15.6281 33.6965 15.182 33.6965Z" fill="#10552D"/>
<path d="M20.8377 18.444C23.4157 15.8474 23.9752 12.0171 24.0961 10.6236C24.1188 10.319 23.8996 10.0982 23.6047 10.1286C22.2212 10.2505 18.4184 10.814 15.8403 13.4106C14.9028 14.3549 14.23 15.4666 13.7537 16.5708C13.1639 15.0859 12.3021 13.5401 11.0168 12.2455C7.88686 9.10062 3.27507 8.41529 1.59669 8.26299C1.23379 8.23253 0.969183 8.49905 0.999424 8.86456C1.14307 10.5551 1.83106 15.2001 4.95346 18.3526C7.31228 20.7285 10.5103 21.7032 12.6574 22.0991V24.1475C12.6574 25.3126 12.0526 26.3939 11.0697 26.9955C9.50476 27.9473 8.45388 28.5032 8.45388 30.4526V45.8727C8.45388 46.4285 8.77897 46.6798 9.13431 46.6798C9.48964 46.6798 9.82986 46.4285 9.8223 45.8727V32.3335C9.8223 30.3003 10.533 27.3686 13.6932 27.3686C16.8534 27.3686 17.564 30.3003 17.564 32.3335V45.9031C17.5565 46.4209 17.8211 46.7407 18.2294 46.7407C18.6754 46.7407 18.9476 46.459 18.9325 45.9183V30.445C18.9325 28.5337 16.5132 27.1097 16.3922 27.0412C15.3791 26.4244 14.7289 25.3431 14.7289 24.1475V21.49C16.4905 21.1321 18.9778 20.3173 20.8301 18.4516L20.8377 18.444ZM12.1206 19.8452C11.0395 19.7462 8.06075 19.3045 6.03458 17.2713C4.01598 15.2382 3.57749 12.2379 3.4792 11.1414C3.45652 10.9053 3.63041 10.7302 3.86478 10.753C4.9459 10.852 7.92466 11.2937 9.95082 13.3269C11.9694 15.36 12.4079 18.3603 12.5062 19.4568C12.5289 19.6929 12.355 19.868 12.1206 19.8452ZM14.6231 19.3578C14.6987 18.4593 15.0616 15.9844 16.7324 14.3092C18.4032 12.6339 20.8528 12.2684 21.7449 12.1846C21.9339 12.1694 22.0775 12.3065 22.0624 12.5045C21.9868 13.403 21.6239 15.8778 19.9531 17.5531C18.2898 19.2284 15.8327 19.5939 14.9406 19.6776C14.7516 19.6929 14.608 19.5482 14.6231 19.3578Z" fill="#10552D"/>
</svg>
